<svg width="48" height="49" viewBox="0 0 48 49" fill="none" xmlns="http://www.w3.org/2000/svg">
<ellipse cx="26.6517" cy="26.961" rx="10.3639" ry="10.3639" fill="#FEF3CD"/>
<path d="M17.0915 12.1957C18.4781 10.4528 21.1935 12.0449 20.3929 14.1313C22.448 13.3269 24.0162 16.0837 22.2995 17.483C24.4784 17.8266 24.4784 21.0107 22.2995 21.3543C24.0162 22.762 22.448 25.5187 20.3929 24.706C21.1853 26.7924 18.4699 28.3845 17.0915 26.6416C16.7531 28.8537 13.6168 28.8537 13.2784 26.6416C11.8918 28.3845 9.17644 26.7924 9.97702 24.706C7.92191 25.5104 6.35374 22.7536 8.07047 21.3543C5.89155 21.0107 5.89155 17.8266 8.07047 17.483C6.35374 16.0753 7.92191 13.3185 9.97702 14.1313C9.18469 12.0449 11.9001 10.4528 13.2784 12.1957C13.6168 9.98359 16.7531 9.98359 17.0915 12.1957Z" fill="#FEF3CD" stroke="#00157C" stroke-width="1.5" stroke-miterlimit="10"/>
<path d="M25.6753 10.2766C26.2633 10.2766 26.74 9.79265 26.74 9.19567C26.74 8.59869 26.2633 8.11475 25.6753 8.11475C25.0873 8.11475 24.6106 8.59869 24.6106 9.19567C24.6106 9.79265 25.0873 10.2766 25.6753 10.2766Z" stroke="#00157C" stroke-width="1.5" stroke-miterlimit="10"/>
<path d="M10.9839 8.65941C11.8272 8.65941 12.5108 7.96538 12.5108 7.10925C12.5108 6.25311 11.8272 5.55908 10.9839 5.55908C10.1406 5.55908 9.45703 6.25311 9.45703 7.10925C9.45703 7.96538 10.1406 8.65941 10.9839 8.65941Z" stroke="#00157C" stroke-width="1.5" stroke-miterlimit="10"/>
<path d="M20.2608 43.8523C20.2608 43.8523 20.4672 42.0927 19.3612 39.9727C17.6197 36.6294 15.8452 35.0792 15.8452 35.0792C15.8452 35.0792 18.7009 35.6239 20.9954 38.3387C23.4467 41.2547 23.9501 44.0869 23.9501 44.0869L24.0904 44.1707C24.0904 44.1707 24.1895 38.7577 22.9267 33.5207C21.9198 29.3227 20.3764 27.144 20.3764 27.144" stroke="#00157C" stroke-width="1.5" stroke-linecap="round" stroke-linejoin="round"/>
<path d="M13.064 18.0359C13.652 18.0359 14.1287 17.5519 14.1287 16.9549C14.1287 16.358 13.652 15.874 13.064 15.874C12.4759 15.874 11.9993 16.358 11.9993 16.9549C11.9993 17.5519 12.4759 18.0359 13.064 18.0359Z" stroke="#00157C" stroke-width="1.5" stroke-miterlimit="10"/>
<path d="M17.694 19.2175C18.0541 19.2175 18.346 18.9211 18.346 18.5555C18.346 18.1899 18.0541 17.8936 17.694 17.8936C17.3339 17.8936 17.042 18.1899 17.042 18.5555C17.042 18.9211 17.3339 19.2175 17.694 19.2175Z" stroke="#00157C" stroke-width="1.5" stroke-miterlimit="10"/>
<path d="M14.079 21.9992C14.4391 21.9992 14.7311 21.7028 14.7311 21.3373C14.7311 20.9717 14.4391 20.6753 14.079 20.6753C13.7189 20.6753 13.427 20.9717 13.427 21.3373C13.427 21.7028 13.7189 21.9992 14.079 21.9992Z" stroke="#00157C" stroke-width="1.5" stroke-miterlimit="10"/>
<path d="M40.6753 21.2599C41.8489 18.1086 40.6883 14.7433 38.0832 13.7434C35.478 12.7435 32.4148 14.4875 31.2413 17.6388C30.0678 20.7901 31.2283 24.1553 33.8335 25.1553C36.4386 26.1552 39.5018 24.4112 40.6753 21.2599Z" stroke="#00157C" stroke-width="1.5" stroke-miterlimit="10"/>
<path d="M32.1872 15.8321C32.1872 15.8321 31.857 15.0528 30.9409 14.4244C30.1568 13.8881 29.4883 13.9048 29.4883 13.9048" stroke="#00157C" stroke-width="1.5" stroke-miterlimit="10" stroke-linecap="round"/>
<path d="M31.0152 17.8769C30.7594 17.659 30.3219 17.349 29.7112 17.1563C28.8115 16.863 28.176 17.0725 28.176 17.0725" stroke="#00157C" stroke-width="1.5" stroke-miterlimit="10" stroke-linecap="round"/>
<path d="M30.7594 20.4325C30.4458 20.3235 29.901 20.1811 29.2077 20.2397C28.2668 20.3152 27.7551 20.7593 27.7551 20.7593" stroke="#00157C" stroke-width="1.5" stroke-miterlimit="10" stroke-linecap="round"/>
<path d="M40.6883 17.0388C39.4916 17.3907 38.1793 17.3656 36.9165 16.8879C35.6537 16.4103 34.6798 15.564 34.0195 14.5166" stroke="#00157C" stroke-width="1.5" stroke-miterlimit="10" stroke-linecap="round"/>
<path d="M36.5286 10.9805L36.5781 13.4356" stroke="#00157C" stroke-width="1.5" stroke-miterlimit="10" stroke-linecap="round"/>
<path d="M41.1504 19.2678C41.1504 19.2678 41.9097 18.9075 42.9992 19.0499C43.9318 19.1756 44.427 19.6365 44.427 19.6365" stroke="#00157C" stroke-width="1.5" stroke-miterlimit="10" stroke-linecap="round"/>
<path d="M40.6965 21.5889C41.0349 21.5889 41.5632 21.6643 42.1491 21.924C43.0158 22.3095 43.3542 22.896 43.3542 22.896" stroke="#00157C" stroke-width="1.5" stroke-miterlimit="10" stroke-linecap="round"/>
<path d="M39.2192 23.6753C39.5246 23.801 40.0281 24.0691 40.5068 24.5719C41.1588 25.259 41.2578 25.9293 41.2578 25.9293" stroke="#00157C" stroke-width="1.5" stroke-miterlimit="10" stroke-linecap="round"/>
<path d="M41.0514 12.7153L39.4172 14.5253" stroke="#00157C" stroke-width="1.5" stroke-miterlimit="10" stroke-linecap="round"/>
<path d="M36.4627 34.3841C36.7681 34.3841 37.0156 34.1327 37.0156 33.8226C37.0156 33.5126 36.7681 33.2612 36.4627 33.2612C36.1572 33.2612 35.9097 33.5126 35.9097 33.8226C35.9097 34.1327 36.1572 34.3841 36.4627 34.3841Z" stroke="#00157C" stroke-width="1.5" stroke-miterlimit="10"/>
<path d="M6.1145 33.0183C6.70252 33.0183 7.1792 32.5343 7.1792 31.9374C7.1792 31.3404 6.70252 30.8564 6.1145 30.8564C5.52649 30.8564 5.0498 31.3404 5.0498 31.9374C5.0498 32.5343 5.52649 33.0183 6.1145 33.0183Z" stroke="#00157C" stroke-width="1.5" stroke-miterlimit="10"/>
<path d="M30.5366 42.6792C30.5366 42.6792 29.9588 40.9698 30.322 37.7605C30.8172 33.4704 32.2616 30.8477 32.2616 30.8477C32.2616 30.8477 29.9258 32.3056 28.2669 35.9925C26.6079 39.6794 27.1114 43.802 27.1114 43.802" stroke="#00157C" stroke-width="1.5" stroke-linecap="round" stroke-linejoin="round"/>
</svg>
