<svg width="48" height="49" viewBox="0 0 48 49" fill="none" xmlns="http://www.w3.org/2000/svg">
<circle cx="23.6978" cy="31.3917" r="10.3639" fill="#FEF3CD"/>
<path d="M21.6841 26.3057L21.1055 17.5885C20.998 15.8866 20.9402 14.6662 20.9402 13.9273C20.9402 12.9227 21.2047 12.134 21.7254 11.5695C22.2462 11.0049 22.9405 10.7227 23.8002 10.7227C24.8416 10.7227 25.536 11.0879 25.8831 11.8019C26.2303 12.5159 26.4121 13.562 26.4121 14.9235C26.4121 15.7205 26.3708 16.5341 26.2882 17.3643L25.5112 26.3389C25.4285 27.4099 25.2467 28.2235 24.9656 28.7963C24.6846 29.3692 24.23 29.6515 23.5852 29.6515C22.9405 29.6515 22.4776 29.3775 22.2297 28.8212C21.9817 28.265 21.7916 27.4265 21.6841 26.2974V26.3057ZM23.701 38.2773C22.9653 38.2773 22.3206 38.0366 21.775 37.5551C21.2295 37.0735 20.9485 36.4094 20.9485 35.5459C20.9485 34.7905 21.213 34.1512 21.7337 33.6282C22.2544 33.1051 22.8992 32.8395 23.6596 32.8395C24.4201 32.8395 25.0731 33.1051 25.6104 33.6282C26.1476 34.1512 26.4204 34.7988 26.4204 35.5459C26.4204 36.3928 26.1476 37.0652 25.6021 37.5468C25.0566 38.0283 24.4284 38.2773 23.701 38.2773Z" fill="#FEF3CD" stroke="#00157C" stroke-width="1.5" stroke-miterlimit="10" stroke-linecap="round"/>
<path d="M16.2287 16.9326L14.121 19.6723C13.6663 20.2701 13.6415 21.092 14.0714 21.7063L15.46 23.6988C15.8651 24.28 15.8733 25.0604 15.4766 25.6498L14.1292 27.6423C13.7159 28.2567 13.7407 29.062 14.1871 29.6514L16.2287 32.3247" stroke="#00157C" stroke-width="1.5" stroke-miterlimit="10" stroke-linecap="round"/>
<path d="M12.1454 14.7158L9.2358 18.4933C8.77291 19.0993 8.74811 19.9378 9.1862 20.5688L11.3353 23.6489C11.7486 24.2466 11.7569 25.0353 11.3518 25.6414L9.26059 28.7215C8.83904 29.3441 8.86384 30.1743 9.31845 30.7721L12.1371 34.4582" stroke="#00157C" stroke-width="1.5" stroke-miterlimit="10" stroke-linecap="round"/>
<path d="M7.58275 12.2505L4.01192 16.8997C3.44984 17.6303 3.42504 18.6431 3.95406 19.3986L6.61565 23.2093C7.11986 23.9232 7.11986 24.878 6.63218 25.6086L4.05325 29.4192C3.54077 30.1747 3.57383 31.1627 4.11937 31.885L7.58275 36.4179" stroke="#00157C" stroke-width="1.5" stroke-miterlimit="10" stroke-linecap="round"/>
<path d="M31.0327 31.7271L33.1405 28.9874C33.5951 28.3896 33.6199 27.5677 33.1901 26.9534L31.8014 24.9608C31.3964 24.3797 31.3881 23.5993 31.7849 23.0099L33.1322 21.0173C33.5455 20.403 33.5207 19.5977 33.0744 19.0082L31.0327 16.335" stroke="#00157C" stroke-width="1.5" stroke-miterlimit="10" stroke-linecap="round"/>
<path d="M35.1162 33.9436L38.0258 30.1661C38.4887 29.5601 38.5135 28.7216 38.0754 28.0906L35.9263 25.0105C35.513 24.4128 35.5047 23.6241 35.9097 23.018L38.001 19.9379C38.4225 19.3153 38.3977 18.4851 37.9431 17.8873L35.1245 14.2012" stroke="#00157C" stroke-width="1.5" stroke-miterlimit="10" stroke-linecap="round"/>
<path d="M39.679 36.4096L43.2498 31.7687C43.8119 31.0382 43.8367 30.0253 43.3076 29.2698L40.6461 25.4591C40.1418 24.7452 40.1418 23.7904 40.6295 23.0598L43.2085 19.2492C43.7209 18.4937 43.6879 17.5057 43.1423 16.7834L39.679 12.2505" stroke="#00157C" stroke-width="1.5" stroke-miterlimit="10" stroke-linecap="round"/>
</svg>
