<svg width="48" height="49" viewBox="0 0 48 49" fill="none" xmlns="http://www.w3.org/2000/svg">
<ellipse cx="34.7173" cy="25.0371" rx="10.9165" ry="10.9165" fill="#FEF3CD"/>
<path d="M34.727 32.2625C31.6351 32.2625 29.1269 29.7567 29.1269 26.6678C29.1269 23.5789 31.6351 21.0731 34.727 21.0731C32.3739 16.4626 27.6859 13.2461 21.575 13.2461H10.4569C6.10637 13.2552 4.02686 19.1961 4.02686 26.5129C4.02686 33.8388 6.59888 39.7706 10.4569 39.7706H21.5841C27.5491 39.7706 32.3009 36.6999 34.7361 32.2533L34.727 32.2625Z" fill="#FEF3CD" stroke="#00157C" stroke-width="1.5" stroke-miterlimit="10"/>
<path d="M43.4194 24.6357V28.7178C43.4194 29.2919 42.9543 29.7657 42.3706 29.7657H34.7092C33.0036 29.7657 31.6173 28.3807 31.6173 26.6768C31.6173 24.9729 33.0036 23.5879 34.7092 23.5879H42.3706C42.9452 23.5879 43.4194 24.0526 43.4194 24.6357Z" stroke="#00157C" stroke-width="1.5" stroke-miterlimit="10"/>
<path d="M23.8008 32.4357V21.0369C23.8008 19.9901 22.9514 19.1416 21.9037 19.1416H9.89176C8.84402 19.1416 7.99466 19.9901 7.99466 21.0369V32.4357C7.99466 33.4825 8.84402 34.331 9.89176 34.331H21.9037C22.9514 34.331 23.8008 33.4825 23.8008 32.4357Z" stroke="#00157C" stroke-width="1.5" stroke-miterlimit="10"/>
<path d="M20.8271 23.5607L20.1704 22.9047C19.7326 22.4673 19.0212 22.4673 18.5834 22.9047L14.4335 27.0506L12.883 25.5016C12.5364 25.1553 11.9801 25.1553 11.6426 25.5016L10.6393 26.5039C10.2927 26.8501 10.2927 27.4059 10.6393 27.7431L12.9925 30.0939L13.6492 30.75L13.8224 30.9231C14.169 31.2693 14.7254 31.2693 15.0629 30.9231L15.2362 30.75L16.0661 29.9208L20.8362 25.1553C21.274 24.7179 21.274 24.0072 20.8362 23.5698L20.8271 23.5607Z" stroke="#00157C" stroke-width="1.5" stroke-miterlimit="10"/>
<path d="M26.6826 19.1416V25.0369" stroke="#00157C" stroke-width="1.5" stroke-miterlimit="10" stroke-linecap="round"/>
<path d="M26.6826 28.4355V34.3309" stroke="#00157C" stroke-width="1.5" stroke-miterlimit="10" stroke-linecap="round"/>
<path d="M41.3034 14.8682L40.7471 16.4718" stroke="#00157C" stroke-width="1.5" stroke-miterlimit="10" stroke-linecap="round"/>
<path d="M41.0572 8.57178C39.835 12.7906 37.5913 14.7496 37.5913 16.8362C37.5913 18.9228 38.9685 20.6085 41.0572 20.6085C43.1458 20.6085 44.5595 18.9228 44.5595 16.8362C44.5595 14.7496 42.5073 12.7906 41.0572 8.57178ZM41.1119 14.3578L39.9536 16.8362C39.835 17.0822 39.5887 17.228 39.3334 17.228C39.233 17.228 39.1418 17.2098 39.0415 17.1642C38.6949 17.0002 38.549 16.5993 38.7132 16.253L39.8715 13.7746C40.0356 13.4284 40.437 13.2826 40.7835 13.4466C41.1301 13.6106 41.2761 14.0115 41.1119 14.3578Z" fill="#00157C"/>
</svg>
