<svg width="48" height="49" viewBox="0 0 48 49" fill="none" xmlns="http://www.w3.org/2000/svg">
<circle cx="20.744" cy="28.4381" r="10.3639" fill="#FEF3CD"/>
<path d="M28.8149 12.6069H16.6307C14.233 12.6069 12.2898 14.5664 12.2898 16.9842C12.2898 19.4019 14.233 21.3614 16.6307 21.3614H32.192" fill="#FEF3CD"/>
<path d="M28.8149 12.6069H16.6307C14.233 12.6069 12.2898 14.5664 12.2898 16.9842C12.2898 19.4019 14.233 21.3614 16.6307 21.3614H32.192" stroke="#00157C" stroke-width="1.5" stroke-miterlimit="10" stroke-linecap="round"/>
<path d="M16.3409 21.3457H14.8835C12.1018 21.3457 9.84521 23.6212 9.84521 26.4261C9.84521 29.231 12.1018 31.5065 14.8835 31.5065H29.959" stroke="#00157C" stroke-width="1.5" stroke-miterlimit="10" stroke-linecap="round"/>
<path d="M15.3379 26.4025H33.0383C35.6789 26.4025 37.818 24.2455 37.818 21.5829C37.818 18.9202 35.6789 16.7632 33.0383 16.7632H31.6515H18.1744" stroke="#00157C" stroke-width="1.5" stroke-miterlimit="10" stroke-linecap="round"/>
<path d="M29.4887 26.4102H30.8208C33.3673 26.4102 35.4281 28.4881 35.4281 31.056C35.4281 33.6239 33.3673 35.7019 30.8208 35.7019H19.2869" stroke="#00157C" stroke-width="1.5" stroke-miterlimit="10" stroke-linecap="round"/>
<path d="M20.3212 31.4985H19.1145C16.8109 31.4985 14.946 33.379 14.946 35.7019C14.946 38.0249 16.8109 39.9053 19.1145 39.9053C19.1145 39.9053 21.2772 39.9053 22.3506 39.9053C23.4241 39.9053 23.8942 40.6085 23.8942 41.4618V43.4687" stroke="#00157C" stroke-width="1.5" stroke-miterlimit="10" stroke-linecap="round"/>
<path d="M24.1372 35.6782C26.6054 35.6782 28.2587 37.377 28.2587 39.8342V43.4608" stroke="#00157C" stroke-width="1.5" stroke-miterlimit="10" stroke-linecap="round"/>
<path d="M27.7493 16.7628H28.9559C31.2596 16.7628 33.1244 14.8823 33.1244 12.5594C33.1244 10.2364 31.2596 8.35597 28.9559 8.35597C28.9559 8.35597 26.7933 8.35597 25.7199 8.35597C24.6464 8.35597 24.1763 7.65277 24.1763 6.79945V4.78467" stroke="#00157C" stroke-width="1.5" stroke-miterlimit="10" stroke-linecap="round"/>
<path d="M23.9098 12.6068C21.4416 12.6068 19.7883 10.9081 19.7883 8.45083V4.82422" stroke="#00157C" stroke-width="1.5" stroke-miterlimit="10" stroke-linecap="round"/>
<path d="M10.5896 6.06494C10.5896 6.06494 11.0206 8.16664 7.85502 9.23329C5.13609 10.1498 5.01855 12.5281 5.01855 12.5281" stroke="#00157C" stroke-width="1.5" stroke-miterlimit="10" stroke-linecap="round"/>
<path d="M12.5249 8.37207C12.5249 8.37207 12.7443 10.5291 9.79032 11.5404C7.07139 12.4727 6.95386 14.8352 6.95386 14.8352" stroke="#00157C" stroke-width="1.5" stroke-miterlimit="10" stroke-linecap="round"/>
<path d="M37.4106 6.06494C37.4106 6.06494 36.9797 8.16664 40.1452 9.23329C42.872 10.1498 42.9817 12.5281 42.9817 12.5281" stroke="#00157C" stroke-width="1.5" stroke-miterlimit="10" stroke-linecap="round"/>
<path d="M35.4751 8.37207C35.4751 8.37207 35.2557 10.5291 38.2097 11.5404C40.9286 12.4727 41.0462 14.8352 41.0462 14.8352" stroke="#00157C" stroke-width="1.5" stroke-miterlimit="10" stroke-linecap="round"/>
<path d="M37.4106 42.3152C37.4106 42.3152 36.9797 40.2135 40.1452 39.1468C42.872 38.2303 42.9817 35.8521 42.9817 35.8521" stroke="#00157C" stroke-width="1.5" stroke-miterlimit="10" stroke-linecap="round"/>
<path d="M35.4751 40.0002C35.4751 40.0002 35.2557 37.8432 38.2097 36.8319C40.9286 35.8995 41.0462 33.5371 41.0462 33.5371" stroke="#00157C" stroke-width="1.5" stroke-miterlimit="10" stroke-linecap="round"/>
<path d="M10.5896 42.3152C10.5896 42.3152 11.0206 40.2135 7.85502 39.1468C5.12825 38.2303 5.01855 35.8521 5.01855 35.8521" stroke="#00157C" stroke-width="1.5" stroke-miterlimit="10" stroke-linecap="round"/>
<path d="M12.5249 40.0002C12.5249 40.0002 12.7443 37.8432 9.79032 36.8319C7.07139 35.8995 6.95386 33.5371 6.95386 33.5371" stroke="#00157C" stroke-width="1.5" stroke-miterlimit="10" stroke-linecap="round"/>
</svg>
