<svg width="48" height="49" viewBox="0 0 48 49" fill="none" xmlns="http://www.w3.org/2000/svg">
<ellipse cx="31.0826" cy="26.961" rx="10.3639" ry="10.3639" fill="#FEF3CD"/>
<path d="M36.7084 31.8941C40.5199 27.7104 43.7119 22.7594 43.7119 17.8892C43.7119 11.4763 38.5983 6.2749 32.2936 6.2749C29.0221 6.2749 26.0841 7.68024 23.9958 9.92556C21.9154 7.68024 18.9774 6.2749 15.706 6.2749C9.40125 6.2749 4.2876 11.4763 4.2876 17.8892C4.2876 30.2384 23.9958 42.6199 23.9958 42.6199C23.9958 42.6199 29.562 39.0581 34.7789 33.8971" fill="#FEF3CD"/>
<path d="M36.7084 31.8941C40.5199 27.7104 43.7119 22.7594 43.7119 17.8892C43.7119 11.4763 38.5983 6.2749 32.2936 6.2749C29.0221 6.2749 26.0841 7.68024 23.9958 9.92556C21.9154 7.68024 18.9774 6.2749 15.706 6.2749C9.40125 6.2749 4.2876 11.4763 4.2876 17.8892C4.2876 30.2384 23.9958 42.6199 23.9958 42.6199C23.9958 42.6199 29.562 39.0581 34.7789 33.8971" stroke="#00157C" stroke-width="1.5" stroke-miterlimit="10" stroke-linecap="round"/>
<path d="M18.8109 30.0933C17.8263 27.7995 18.7712 25.6431 19.5652 23.842C20.1687 22.477 20.788 21.0555 20.7483 19.521C20.7086 17.9864 19.724 17.106 18.8109 16.7991C17.5642 16.371 16.262 16.8233 15.3409 18.0025C13.9275 19.8036 15.7062 22.3962 15.73 22.4205C16.1588 23.0343 16.0238 23.8904 15.4203 24.3347C14.8168 24.7789 13.9751 24.6416 13.5384 24.0277C13.4114 23.85 10.5369 19.7229 13.2287 16.2903C14.8724 14.2065 17.3419 13.3988 19.6684 14.1984C21.8997 14.9576 23.3766 17.0172 23.4481 19.4483C23.5037 21.6128 22.7255 23.3897 22.0347 24.9646C20.9786 27.3796 20.5657 28.5184 22.0506 30.1176C23.3131 31.4825 25.2903 31.1352 26.6957 30.1822C28.3712 29.0514 29.8401 26.6042 28.4506 23.4381C26.1717 18.2448 27.466 14.6507 29.4352 13.0192C31.3012 11.4685 33.866 11.4604 35.9861 12.995C39.321 15.418 37.9394 19.9813 36.5895 22.2913C36.2084 22.9455 35.3826 23.1635 34.7394 22.7759C34.0962 22.3882 33.8818 21.5482 34.263 20.894C34.2868 20.8536 36.5816 16.8072 34.4138 15.2322C33.3022 14.4246 32.0476 14.3923 31.1424 15.1434C30.0069 16.0884 29.2605 18.5356 30.92 22.3155C32.8655 26.7415 30.9518 30.6022 28.1965 32.4679C26.9181 33.3321 25.5285 33.7601 24.2024 33.7601C22.6382 33.7601 21.1692 33.1705 20.0893 31.9994" stroke="#00157C" stroke-width="1.5" stroke-miterlimit="10" stroke-linecap="round"/>
</svg>
