<svg width="48" height="49" viewBox="0 0 48 49" fill="none" xmlns="http://www.w3.org/2000/svg">
<ellipse cx="18.8278" cy="27.2086" rx="11.4069" ry="11.4069" fill="#FEF3CD"/>
<path d="M33.9883 26.017C34.0476 25.8074 34.1069 25.5878 34.1563 25.3682C34.2847 24.7793 34.8082 24.3502 35.4108 24.3502H38.7794C38.9276 24.3502 39.0659 24.44 39.135 24.5697C39.6586 25.5079 40.6464 26.1467 41.7923 26.1467C43.7088 26.1467 45.2103 24.3601 44.7559 22.334C44.499 21.2262 43.61 20.3279 42.5135 20.0684C41.1107 19.739 39.8463 20.3977 39.1943 21.4757C39.1153 21.6054 38.9868 21.6853 38.8485 21.6853H35.4405C34.8379 21.6853 34.3143 21.2561 34.1859 20.6573C33.9192 19.3997 33.4351 18.2219 32.7831 17.1739C32.467 16.6649 32.5362 15.9962 32.961 15.567L34.8082 13.7006C34.9268 13.5808 35.0947 13.5509 35.2528 13.6108C35.8751 13.8503 36.5765 13.9202 37.3174 13.7305C38.6608 13.3812 39.7178 12.2134 39.9055 10.8261C40.2118 8.58042 38.404 6.66409 36.211 6.82379C34.8477 6.92359 33.6623 7.89174 33.1882 9.19923C32.9116 9.96775 32.9412 10.6764 33.1388 11.3252C33.1882 11.4749 33.1486 11.6346 33.04 11.7443L31.1532 13.6507C30.7185 14.0898 30.0468 14.1597 29.5331 13.8204C28.4761 13.1217 27.3006 12.6027 26.0361 12.3033C25.4533 12.1635 25.0483 11.6445 25.0483 11.0357V9.81804C25.0483 9.66833 25.1273 9.53858 25.2557 9.45873C26.3424 8.80998 27.0042 7.51247 26.6782 6.07522C26.4214 4.95737 25.5323 4.03913 24.4161 3.78961C22.4008 3.32051 20.6227 4.85756 20.6227 6.80382C20.6227 7.9616 21.2549 8.96967 22.1934 9.49865C22.3218 9.5785 22.4107 9.70825 22.4107 9.85797V10.9459C22.4107 11.5647 21.9859 12.0937 21.3834 12.2134C20.0794 12.4829 18.8643 12.992 17.7777 13.6906C17.2739 14.02 16.612 13.9401 16.1774 13.511L14.2313 11.5447C14.1227 11.4349 14.093 11.2653 14.1424 11.1156C14.34 10.5466 14.3993 9.91785 14.3104 9.2691C14.0733 7.64222 12.7693 6.2948 11.1591 6.0353C8.47217 5.59614 6.19024 7.99155 6.77307 10.7263C7.02991 11.924 7.88934 12.942 9.00561 13.4111C10.1219 13.8802 11.1196 13.7904 11.9889 13.4111C12.147 13.3413 12.3248 13.3712 12.4532 13.491L14.3005 15.3574C14.7253 15.7866 14.8043 16.4653 14.4684 16.9843C13.7572 18.0922 13.2336 19.3298 12.957 20.6573C12.8286 21.2561 12.305 21.6753 11.7024 21.6753H10.8035C10.6356 21.6753 10.4973 21.5755 10.4281 21.4158C9.67735 19.6791 7.82019 18.5413 5.75559 18.9605C4.80725 19.1501 3.96758 19.6791 3.36499 20.4177" fill="#FEF3CD"/>
<path d="M33.9883 26.017C34.0476 25.8074 34.1069 25.5878 34.1563 25.3682C34.2847 24.7793 34.8082 24.3502 35.4108 24.3502H38.7794C38.9276 24.3502 39.0659 24.44 39.135 24.5697C39.6586 25.5079 40.6464 26.1467 41.7923 26.1467C43.7088 26.1467 45.2103 24.3601 44.7559 22.334C44.499 21.2262 43.61 20.3279 42.5135 20.0684C41.1107 19.739 39.8463 20.3977 39.1943 21.4757C39.1153 21.6054 38.9868 21.6853 38.8485 21.6853H35.4405C34.8379 21.6853 34.3143 21.2561 34.1859 20.6573C33.9192 19.3997 33.4351 18.2219 32.7831 17.1739C32.467 16.6649 32.5362 15.9962 32.961 15.567L34.8082 13.7006C34.9268 13.5808 35.0947 13.5509 35.2528 13.6108C35.8751 13.8503 36.5765 13.9202 37.3174 13.7305C38.6608 13.3812 39.7178 12.2134 39.9055 10.8261C40.2118 8.58042 38.404 6.66409 36.211 6.82379C34.8477 6.92359 33.6623 7.89174 33.1882 9.19923C32.9116 9.96776 32.9412 10.6764 33.1388 11.3252C33.1882 11.4749 33.1486 11.6346 33.04 11.7443L31.1532 13.6507C30.7185 14.0898 30.0468 14.1597 29.5331 13.8204C28.4761 13.1217 27.3006 12.6027 26.0361 12.3033C25.4533 12.1635 25.0483 11.6445 25.0483 11.0357V9.81804C25.0483 9.66833 25.1273 9.53858 25.2557 9.45873C26.3424 8.80998 27.0042 7.51247 26.6782 6.07522C26.4214 4.95737 25.5323 4.03913 24.4161 3.78961C22.4008 3.32051 20.6227 4.85756 20.6227 6.80382C20.6227 7.9616 21.2549 8.96967 22.1934 9.49866C22.3218 9.5785 22.4107 9.70825 22.4107 9.85797V10.9459C22.4107 11.5647 21.9859 12.0937 21.3834 12.2134C20.0794 12.4829 18.8643 12.992 17.7777 13.6906C17.2739 14.02 16.612 13.9401 16.1774 13.511L14.2313 11.5447C14.1227 11.4349 14.093 11.2653 14.1424 11.1156C14.34 10.5466 14.3993 9.91785 14.3104 9.2691C14.0733 7.64222 12.7693 6.2948 11.1591 6.0353C8.47217 5.59614 6.19024 7.99155 6.77307 10.7263C7.02991 11.924 7.88934 12.942 9.00561 13.4112C10.1219 13.8803 11.1196 13.7904 11.9889 13.4112C12.147 13.3413 12.3248 13.3712 12.4532 13.491L14.3005 15.3574C14.7253 15.7866 14.8043 16.4653 14.4684 16.9843C13.7572 18.0922 13.2336 19.3298 12.957 20.6573C12.8286 21.2561 12.305 21.6753 11.7024 21.6753H10.8035C10.6356 21.6753 10.4973 21.5755 10.4281 21.4158C9.67735 19.6791 7.82019 18.5413 5.75559 18.9605C4.80725 19.1501 3.96758 19.6791 3.36499 20.4177" stroke="#00157C" stroke-width="1.5" stroke-miterlimit="10" stroke-linecap="round"/>
<path d="M2.42646 22.9829C2.34743 25.3883 4.2441 27.3645 6.60506 27.3645C8.39307 27.3645 9.8946 26.2267 10.4972 24.6397C10.5565 24.48 10.7046 24.3603 10.8824 24.3603H11.732C12.3346 24.3603 12.8581 24.7795 12.9866 25.3683C13.273 26.6858 13.7966 27.9135 14.5079 29.0014C14.8437 29.5204 14.7746 30.1991 14.3399 30.6382L12.0284 32.9737C11.9296 33.0736 11.7814 33.1135 11.6431 33.0835C10.9417 32.9238 9.97362 32.8041 8.98577 33.7523C8.47209 34.2413 8.27452 35.0997 8.26464 35.8083C8.22513 37.3953 9.46982 38.6928 11.0207 38.7327C12.0185 38.7527 12.9174 38.1538 13.4607 37.3054C13.9645 36.5169 13.9843 35.8382 13.8262 35.2194C13.7867 35.0697 13.8262 34.92 13.925 34.8102L16.2465 32.4647C16.6712 32.0355 17.3331 31.9557 17.8369 32.2851C18.9137 32.9638 20.109 33.4628 21.3932 33.7223C21.9859 33.8421 22.4205 34.381 22.4205 34.9899V36.8164C22.4205 36.9761 22.3217 37.1258 22.1736 37.1956C20.4745 37.9742 19.378 39.8506 19.7928 41.9366C20.1188 43.5534 21.403 44.8609 22.9935 45.2003C25.7101 45.7792 28.1105 43.6932 28.1105 41.0483C28.1105 39.2118 26.9449 37.6647 25.3248 37.0759C25.1569 37.016 25.0482 36.8663 25.0482 36.6866V34.91C25.0482 34.3112 25.4532 33.7822 26.0361 33.6425C27.2807 33.353 28.4365 32.844 29.4738 32.1653C29.9875 31.8259 30.6592 31.8958 31.084 32.335L32.2793 33.5427C32.3879 33.6524 32.4176 33.8121 32.378 33.9519C32.22 34.5507 32.2299 35.2194 32.6448 35.968C33.1387 36.8563 34.0574 37.5051 35.065 37.515C36.6554 37.535 37.9495 36.2375 37.9298 34.6306C37.9298 33.9119 37.7915 33.1035 37.2679 32.6045C36.2899 31.6563 35.2823 31.7162 34.5908 31.8559C34.4525 31.8858 34.3142 31.8559 34.2056 31.7461L32.9016 30.4286C32.4768 29.9995 32.4077 29.3307 32.7238 28.8117" stroke="#00157C" stroke-width="1.5" stroke-miterlimit="10" stroke-linecap="round"/>
<path d="M20.6227 19.7389C21.5284 19.7389 22.2626 18.9972 22.2626 18.0821C22.2626 17.1671 21.5284 16.4253 20.6227 16.4253C19.7171 16.4253 18.9829 17.1671 18.9829 18.0821C18.9829 18.9972 19.7171 19.7389 20.6227 19.7389Z" stroke="#00157C" stroke-width="1.5" stroke-miterlimit="10"/>
<path d="M27.7648 23.7813C28.4468 23.7813 28.9997 23.2228 28.9997 22.5337C28.9997 21.8447 28.4468 21.2861 27.7648 21.2861C27.0829 21.2861 26.53 21.8447 26.53 22.5337C26.53 23.2228 27.0829 23.7813 27.7648 23.7813Z" fill="#00157C"/>
<path d="M24.7717 29.0611C25.4536 29.0611 26.0065 28.5026 26.0065 27.8135C26.0065 27.1245 25.4536 26.5659 24.7717 26.5659C24.0897 26.5659 23.5369 27.1245 23.5369 27.8135C23.5369 28.5026 24.0897 29.0611 24.7717 29.0611Z" fill="#00157C"/>
<path d="M22.154 25.4181C22.836 25.4181 23.3888 24.8595 23.3888 24.1705C23.3888 23.4814 22.836 22.9229 22.154 22.9229C21.472 22.9229 20.9192 23.4814 20.9192 24.1705C20.9192 24.8595 21.472 25.4181 22.154 25.4181Z" fill="#00157C"/>
</svg>
