<svg width="48" height="49" viewBox="0 0 48 49" fill="none" xmlns="http://www.w3.org/2000/svg">
<circle cx="25.9132" cy="27.6998" r="10.3639" fill="#FEF3CD"/>
<path d="M19.8921 17.9612C20.8237 17.7104 21.7916 17.5581 22.7865 17.5044L19.8921 17.9612Z" fill="#FEF3CD"/>
<path d="M19.8921 17.9612C20.8237 17.7104 21.7916 17.5581 22.7865 17.5044" stroke="#00157C" stroke-width="1.5" stroke-miterlimit="10" stroke-linecap="round"/>
<path d="M35.5224 23.8999C36.9605 26.1034 37.8017 28.728 37.8017 31.5406C37.8017 39.3068 31.443 45.6039 23.6008 45.6039C15.7587 45.6039 9.3999 39.3068 9.3999 31.5406C9.3999 29.8477 9.69839 28.2174 10.2592 26.7126" stroke="#00157C" stroke-width="1.5" stroke-miterlimit="10" stroke-linecap="round"/>
<path d="M31.7958 27.626C32.3747 28.8084 32.7004 30.143 32.7004 31.5404C32.7004 36.5208 28.621 40.5516 23.6009 40.5516C18.5808 40.5516 14.5015 36.5118 14.5015 31.5404C14.5015 29.9281 14.9266 28.4142 15.6773 27.1064" stroke="#00157C" stroke-width="1.5" stroke-miterlimit="10" stroke-linecap="round"/>
<path d="M21.6196 22.7443C22.2528 22.601 22.9131 22.5293 23.5915 22.5293C24.496 22.5293 25.3643 22.6637 26.1874 22.9055" stroke="#00157C" stroke-width="1.5" stroke-miterlimit="10" stroke-linecap="round"/>
<path d="M27.5895 32.3201C27.2277 34.1743 25.5724 35.5806 23.5915 35.5806C21.6106 35.5806 19.8739 34.1026 19.5664 32.1768" stroke="#00157C" stroke-width="1.5" stroke-miterlimit="10" stroke-linecap="round"/>
<path d="M31.2441 18.7852C31.425 18.4179 31.226 17.979 30.8371 17.8536L25.7447 17.7013C25.3557 17.5759 25.1658 17.1459 25.3376 16.7787L31.3979 3.7724C31.5426 3.46785 31.8863 3.31557 32.212 3.4141L37.232 4.95479C37.63 5.0802 37.829 5.52807 37.6391 5.89533L34.4371 11.5923C34.2381 11.9775 34.4552 12.4433 34.8803 12.5507L41.637 12.7836C42.1345 12.909 42.3245 13.5092 41.9807 13.8854L25.9346 30.2866C25.41 30.8599 24.4783 30.2418 24.813 29.5431L31.2441 18.7852Z" stroke="#00157C" stroke-width="1.5" stroke-miterlimit="10"/>
<path d="M15.6227 13.948C15.4689 13.5181 14.89 13.4285 14.6096 13.7957L12.8458 16.6353C12.5926 16.9757 12.068 16.9309 11.869 16.5636L8.90214 10.1948C8.72124 9.85445 8.25994 9.78279 7.97954 10.0515L4.54237 13.3837C4.34338 13.5808 4.3072 13.8853 4.46096 14.1093L11.281 24.5806C11.5072 24.921 12.0137 24.921 12.2489 24.5806L14.085 21.7679C14.3021 21.4454 14.7725 21.4275 15.0167 21.7231L20.9322 30.2059C21.3483 30.7075 22.1533 30.2596 21.9272 29.6505L15.6227 13.948Z" stroke="#00157C" stroke-width="1.5" stroke-miterlimit="10"/>
</svg>
