<svg width="48" height="49" viewBox="0 0 48 49" fill="none" xmlns="http://www.w3.org/2000/svg">
<circle cx="25.9132" cy="23.2686" r="10.3639" fill="#FEF3CD"/>
<path d="M15.9556 46.3307C15.9556 46.3307 16.302 44.1129 17.5947 42.9916C18.8874 41.8703 20.3069 41.5323 21.4476 41.5323L32.4991 41.5983C33.7581 41.5983 36.5632 40.8315 36.7068 37.4924C36.8505 34.1534 34.189 32.9662 32.2879 33.1805C28.4942 33.601 28.7223 37.7728 28.7223 37.7728" fill="#FEF3CD"/>
<path d="M15.9556 46.3307C15.9556 46.3307 16.302 44.1129 17.5947 42.9916C18.8874 41.8703 20.3069 41.5323 21.4476 41.5323L32.4991 41.5983C33.7581 41.5983 36.5632 40.8315 36.7068 37.4924C36.8505 34.1534 34.189 32.9662 32.2879 33.1805C28.4942 33.601 28.7223 37.7728 28.7223 37.7728" stroke="#00157C" stroke-width="1.5" stroke-miterlimit="10" stroke-linecap="round"/>
<path d="M36.7658 35.8931C36.7658 35.8931 40.9989 34.9614 40.7116 31.1606C40.3567 26.387 35.5745 26.4282 35.5745 26.4282" stroke="#00157C" stroke-width="1.5" stroke-miterlimit="10" stroke-linecap="round"/>
<path d="M35.5745 29.6929C35.5745 29.6929 36.0477 23.7732 31.5358 22.149C25.7143 20.0549 22.4529 24.4658 22.4529 24.4658" stroke="#00157C" stroke-width="1.5" stroke-miterlimit="10" stroke-linecap="round"/>
<path d="M24.0161 23.0147C24.0161 23.0147 18.5241 20.1621 14.7473 24.474C11.7901 27.846 14.2488 32.4795 14.2488 32.4795" stroke="#00157C" stroke-width="1.5" stroke-miterlimit="10" stroke-linecap="round"/>
<path d="M11.9674 46.4045C11.9674 46.4045 11.8576 43.8652 13.4629 42.0513C15.0683 40.2375 17.4594 39.7923 17.4594 39.7923C17.4594 39.7923 9.97339 41.095 8.90034 36.2389C7.82729 31.3828 13.2179 29.5195 13.2179 29.5195" stroke="#00157C" stroke-width="1.5" stroke-linecap="round" stroke-linejoin="round"/>
<path d="M16.7412 35.3324C16.7412 35.3324 19.5717 34.5821 21.025 35.8188C22.4782 37.0555 22.1656 39.0919 22.1656 39.0919" stroke="#00157C" stroke-width="1.5" stroke-miterlimit="10" stroke-linecap="round"/>
<path d="M21.27 35.959C21.27 35.959 22.6641 36.0909 23.5851 35.3984C24.7595 34.5245 24.4385 33.3125 24.4385 33.3125" stroke="#00157C" stroke-width="1.5" stroke-miterlimit="10" stroke-linecap="round"/>
<path d="M30.9359 33.4527C30.9359 33.4527 28.9757 34.1123 28.0125 32.7601C27.0493 31.408 27.9787 29.6602 27.9787 29.6602" stroke="#00157C" stroke-width="1.5" stroke-miterlimit="10" stroke-linecap="round"/>
<path d="M25.7312 26.6012C25.7312 26.6012 27.4126 24.7214 29.6516 25.8674C31.7555 26.9474 31.3246 28.8602 31.3246 28.8602" stroke="#00157C" stroke-width="1.5" stroke-miterlimit="10" stroke-linecap="round"/>
<path d="M19.6646 25.5542C19.6646 25.5542 21.0925 26.3539 20.8813 28.2997C20.67 30.2454 18.2451 30.806 18.2451 30.806" stroke="#00157C" stroke-width="1.5" stroke-miterlimit="10" stroke-linecap="round"/>
<path d="M20.5941 29.2808C20.5941 29.2808 20.3997 30.2454 21.5573 31.0204C22.8078 31.8531 24.1596 30.8472 24.1596 30.8472" stroke="#00157C" stroke-width="1.5" stroke-miterlimit="10" stroke-linecap="round"/>
<path d="M28.1309 18.7605L35.6338 12.9316C35.9042 12.7255 35.7859 12.2967 35.4395 12.2555L32.2963 11.835C32.1274 11.8103 32.026 11.6289 32.1105 11.4805L36.0647 5.45372C36.2083 5.20638 35.8873 4.95904 35.6676 5.14866L26.3565 12.643C26.1115 12.8574 26.2552 13.2531 26.5847 13.2696L29.7024 13.4592C29.9728 13.4757 30.1333 13.7643 29.9982 13.9951L27.6915 18.406C27.531 18.6781 27.8774 18.9584 28.1224 18.7688L28.1309 18.7605Z" stroke="#00157C" stroke-width="1.5" stroke-miterlimit="10"/>
<path d="M23.3571 18.3895L20.2731 8.397C20.1886 8.06722 19.7408 8.00126 19.5549 8.28982L17.8651 10.9281C17.7721 11.0765 17.5609 11.0847 17.4595 10.9446L13.4208 4.91778C13.2433 4.68693 12.88 4.87655 12.973 5.14038L16.4118 16.0727C16.5132 16.3778 16.9441 16.4108 17.0962 16.1305L18.3382 13.9209C18.465 13.6818 18.8029 13.6571 18.9635 13.8797L22.8417 18.6368C23.0275 18.8924 23.4416 18.7028 23.3655 18.3977L23.3571 18.3895Z" stroke="#00157C" stroke-width="1.5" stroke-miterlimit="10"/>
</svg>
