<svg width="48" height="49" viewBox="0 0 48 49" fill="none" xmlns="http://www.w3.org/2000/svg">
<ellipse cx="29.6056" cy="32.1305" rx="10.3639" ry="10.3639" fill="#FEF3CD"/>
<path d="M11.385 5.20996C11.385 5.20996 11.3579 11.0599 15.4905 16.0677C19.0625 20.3857 25.2932 24.4887 21.6036 31.987C18.321 38.6791 14.5139 35.0598 8.00293 37.2367C2.81224 38.9657 2.89363 45.2905 2.89363 45.2905" fill="#FEF3CD"/>
<path d="M11.385 5.20996C11.385 5.20996 11.3579 11.0599 15.4905 16.0677C19.0625 20.3857 25.2932 24.4887 21.6036 31.987C18.321 38.6791 14.5139 35.0598 8.00293 37.2367C2.81224 38.9657 2.89363 45.2905 2.89363 45.2905" stroke="#00157C" stroke-width="1.5" stroke-miterlimit="10" stroke-linecap="round"/>
<path d="M7.46031 45.613C7.46031 45.613 7.30657 41.3935 11.177 41.0889C14.9298 40.7933 20.003 45.7921 28.5215 44.5827C32.0302 44.09 39.4907 42.6387 43.8223 31.3958C48.1539 20.1528 40.7748 9.59068 33.3052 9.09797C27.0656 8.68587 23.0505 12.6366 21.7483 14.1595C21.4227 14.5448 20.8801 14.6433 20.428 14.4193C19.4694 13.9445 17.905 12.7889 16.7203 10.0924C15.0836 6.37457 15.59 4.12598 15.59 4.12598" stroke="#00157C" stroke-width="1.5" stroke-miterlimit="10" stroke-linecap="round"/>
<path d="M37.3065 32.8168C38.1116 31.4836 37.9617 29.9272 36.9716 29.3404C35.9816 28.7537 34.5263 29.3588 33.7212 30.692C32.9161 32.0252 33.066 33.5816 34.0561 34.1684C35.0461 34.7551 36.5014 34.15 37.3065 32.8168Z" stroke="#00157C" stroke-width="1.5" stroke-miterlimit="10"/>
<path d="M35.6204 29.1378C35.6204 29.1378 37.23 28.3763 37.8269 27.364C38.4237 26.3517 38.5413 25.3125 38.5413 25.3125" stroke="#00157C" stroke-width="1.5" stroke-miterlimit="10" stroke-linecap="round"/>
<path d="M37.8176 30.8044C37.8176 30.8044 39.1017 30.9298 39.9699 30.5177C40.838 30.1056 41.3625 29.4785 41.3625 29.4785" stroke="#00157C" stroke-width="1.5" stroke-miterlimit="10" stroke-linecap="round"/>
<path d="M33.4682 31.073C33.4682 31.073 33.3054 29.3082 32.5548 28.4123C31.8042 27.5165 30.8638 27.0327 30.8638 27.0327" stroke="#00157C" stroke-width="1.5" stroke-miterlimit="10" stroke-linecap="round"/>
<path d="M34.9602 39.2432C34.9602 39.2432 35.7922 37.6754 35.6475 36.5108C35.5028 35.3462 34.9873 34.4414 34.9873 34.4414" stroke="#00157C" stroke-width="1.5" stroke-miterlimit="10" stroke-linecap="round"/>
<path d="M30.2668 36.6183C30.2668 36.6183 31.8765 35.8568 32.4733 34.8445C33.0702 33.8322 33.1877 32.793 33.1877 32.793" stroke="#00157C" stroke-width="1.5" stroke-miterlimit="10" stroke-linecap="round"/>
</svg>
