<svg width="48" height="49" viewBox="0 0 48 49" fill="none" xmlns="http://www.w3.org/2000/svg">
<circle cx="26.6517" cy="17.3609" r="10.3639" fill="#FEF3CD"/>
<path d="M15.6703 6.46094C15.6703 6.46094 12.7194 7.2737 11.297 9.49033C9.87462 11.707 12.9211 14.3458 15.7658 14.7469C18.6106 15.148 20.8503 16.8685 20.8503 16.8685C20.8503 16.8685 21.9224 17.5757 24.3108 17.5757C26.3382 17.5757 27.888 16.8685 27.888 16.8685C27.888 16.8685 30.1277 15.148 32.9725 14.7469C35.8172 14.3458 38.8637 11.7175 37.4413 9.49033C36.0189 7.26315 33.068 6.46094 33.068 6.46094" fill="#FEF3CD"/>
<path d="M15.6703 6.46094C15.6703 6.46094 12.7194 7.2737 11.297 9.49033C9.87462 11.707 12.9211 14.3458 15.7658 14.7469C18.6106 15.148 20.8503 16.8685 20.8503 16.8685C20.8503 16.8685 21.9224 17.5757 24.3108 17.5757C26.3382 17.5757 27.888 16.8685 27.888 16.8685C27.888 16.8685 30.1277 15.148 32.9724 14.7469C35.8172 14.3458 38.8637 11.7175 37.4413 9.49033C36.0189 7.26315 33.068 6.46094 33.068 6.46094" stroke="#00157C" stroke-width="1.5" stroke-miterlimit="10" stroke-linecap="round"/>
<path d="M19.4279 19.0956C19.4279 19.0956 13.8339 19.8028 11.6048 18.7895C9.37569 17.7761 7.33765 14.0396 7.33765 14.0396" stroke="#00157C" stroke-width="1.5" stroke-miterlimit="10" stroke-linecap="round"/>
<path d="M18.1861 21.418C18.1861 21.418 16.7638 21.7241 15.9464 21.9246C15.1291 22.1252 10.8938 26.5373 9.03618 27.1812C6.70092 27.994 3.75 26.3684 3.75 26.3684" stroke="#00157C" stroke-width="1.5" stroke-miterlimit="10" stroke-linecap="round"/>
<path d="M16.3497 26.168C16.3497 26.168 15.2351 26.0624 14.7256 26.3685C14.2161 26.6746 10.4584 36.375 9.84277 37.6839C9.22712 38.9927 4.95996 42.5393 4.95996 42.5393" stroke="#00157C" stroke-width="1.5" stroke-miterlimit="10" stroke-linecap="round"/>
<path d="M24.5762 11.7492C24.5762 11.7492 25.9349 11.0737 26.2003 11.612C26.4656 12.1503 27.3573 13.702 27.0176 14.3775C26.6779 15.0531 26.4126 15.2536 26.4126 15.2536C26.4126 15.2536 29.6607 17.6814 32.4418 25.8301C35.2229 33.9788 32.2401 36.4066 30.9557 37.2827C29.6713 38.1588 27.6333 39.2987 24.4488 39.2987H24.4276C21.2432 39.2987 19.2157 38.1482 17.9207 37.2827C16.6257 36.4171 13.6536 33.9788 16.4346 25.8301C19.2157 17.6814 22.4639 15.2536 22.4639 15.2536C22.4639 15.2536 22.1879 15.0531 21.8588 14.3775C21.5298 13.702 22.4002 12.1503 22.6762 11.612C22.9521 11.0737 24.3002 11.7492 24.3002 11.7492H24.5974H24.5762Z" stroke="#00157C" stroke-width="1.5" stroke-linecap="round" stroke-linejoin="round"/>
<path d="M29.3105 19.0956C29.3105 19.0956 34.9046 19.8028 37.1337 18.7895C39.3628 17.7761 41.4008 14.0396 41.4008 14.0396" stroke="#00157C" stroke-width="1.5" stroke-miterlimit="10" stroke-linecap="round"/>
<path d="M30.5522 21.418C30.5522 21.418 31.9746 21.7241 32.792 21.9246C33.6093 22.1252 37.8446 26.5373 39.7022 27.1812C42.0375 27.994 44.9884 26.3684 44.9884 26.3684" stroke="#00157C" stroke-width="1.5" stroke-miterlimit="10" stroke-linecap="round"/>
<path d="M32.3887 26.168C32.3887 26.168 33.5032 26.0624 34.0127 26.3685C34.5222 26.6746 38.2799 36.375 38.8956 37.6839C39.5112 38.9927 43.7784 42.5393 43.7784 42.5393" stroke="#00157C" stroke-width="1.5" stroke-miterlimit="10" stroke-linecap="round"/>
<path d="M16.7849 25.0594C16.7849 25.0594 17.857 29.5032 24.3108 29.5032C30.7646 29.5032 31.8367 24.5527 31.8367 24.5527" stroke="#00157C" stroke-width="1.5" stroke-miterlimit="10" stroke-linecap="round"/>
</svg>
