<svg width="48" height="49" viewBox="0 0 48 49" fill="none" xmlns="http://www.w3.org/2000/svg">
<ellipse cx="32.3355" cy="31.0572" rx="11.0791" ry="11.0791" fill="#FEF3CD"/>
<path d="M10.2705 7.47461C10.2705 7.47461 10.2468 12.6296 13.8545 17.0425C16.9727 20.8475 22.4119 24.4631 19.191 31.0706C16.3254 36.9677 13.0019 33.7784 7.318 35.6967C2.78668 37.2203 2.85773 42.7936 2.85773 42.7936" fill="#FEF3CD"/>
<path d="M10.2705 7.47461C10.2705 7.47461 10.2468 12.6296 13.8545 17.0425C16.9727 20.8475 22.4119 24.4631 19.191 31.0706C16.3254 36.9677 13.0019 33.7784 7.318 35.6967C2.78668 37.2203 2.85773 42.7936 2.85773 42.7936" stroke="#00157C" stroke-width="1.5" stroke-miterlimit="10" stroke-linecap="round"/>
<path d="M32.8718 11.9191C32.0034 11.556 31.1113 11.335 30.2193 11.2797C24.7722 10.9166 21.0698 13.4427 19.933 14.7848C19.6488 15.1242 19.1752 15.2111 18.7805 15.0137C17.9437 14.5953 16.7437 14.1611 15.7096 11.7849C14.2807 8.50881 14.7228 6.52734 14.7228 6.52734" stroke="#00157C" stroke-width="1.5" stroke-miterlimit="10" stroke-linecap="round"/>
<path d="M7.63354 43.0778C7.63354 43.0778 7.49934 39.3596 10.8781 39.0912C14.1542 38.8307 18.5829 43.2357 26.0193 42.17C27.5587 41.949 29.9586 41.5227 32.4532 39.8964" stroke="#00157C" stroke-width="1.5" stroke-miterlimit="10" stroke-linecap="round"/>
<path d="M36.3846 15.6136L37.5845 17.2241C37.9634 17.7372 38.595 17.9977 39.2265 17.903L41.2159 17.6188C42.3605 17.453 43.3394 18.4319 43.1736 19.5766L42.8895 21.5659C42.7947 22.1975 43.0631 22.829 43.5684 23.2079L45.1788 24.4079C46.1024 25.1026 46.1024 26.4919 45.1788 27.1787L43.5684 28.3787C43.0552 28.7576 42.7947 29.3892 42.8895 30.0207L43.1736 32.0101C43.3394 33.1547 42.3605 34.1336 41.2159 33.9678L39.2265 33.6836C38.595 33.5889 37.9634 33.8573 37.5845 34.3626L36.3846 35.973C35.6899 36.8966 34.3005 36.8966 33.6137 35.973L32.4137 34.3626C32.0348 33.8494 31.4033 33.5889 30.7717 33.6836L28.7824 33.9678C27.6377 34.1336 26.6588 33.1547 26.8246 32.0101L27.1088 30.0207C27.2035 29.3892 26.9351 28.7576 26.4299 28.3787L24.8194 27.1787C23.8958 26.4841 23.8958 25.0947 24.8194 24.4079L26.4299 23.2079C26.943 22.829 27.2035 22.1975 27.1088 21.5659L26.8246 19.5766C26.6588 18.4319 27.6377 17.453 28.7824 17.6188L30.7717 17.903C31.4033 17.9977 32.0348 17.7293 32.4137 17.2241L33.6137 15.6136C34.3084 14.69 35.6978 14.69 36.3846 15.6136Z" stroke="#00157C" stroke-width="1.5" stroke-miterlimit="10" stroke-linecap="round"/>
<path d="M34.1348 26.9502L33.8664 22.9162C33.819 22.1268 33.7874 21.5663 33.7874 21.2268C33.7874 20.761 33.9059 20.3979 34.1506 20.1374C34.3953 19.8769 34.719 19.7427 35.1137 19.7427C35.5952 19.7427 35.9189 19.9085 36.0847 20.24C36.2505 20.5716 36.3294 21.0531 36.3294 21.6847C36.3294 22.0557 36.3057 22.4346 36.2741 22.8136L35.911 26.9659C35.8715 27.4633 35.7847 27.8422 35.6584 28.1027C35.5321 28.3632 35.3189 28.4974 35.0189 28.4974C34.719 28.4974 34.5058 28.3711 34.3874 28.1106C34.269 27.8501 34.1821 27.4633 34.1348 26.9423V26.9502ZM35.0663 32.4919C34.7269 32.4919 34.4269 32.3814 34.1664 32.1604C33.9059 31.9393 33.7795 31.6315 33.7795 31.2289C33.7795 30.8815 33.898 30.5815 34.1427 30.3368C34.3874 30.0921 34.6874 29.9737 35.0426 29.9737C35.3979 29.9737 35.6979 30.0921 35.9505 30.3368C36.2031 30.5815 36.3215 30.8736 36.3215 31.2289C36.3215 31.6236 36.1952 31.9315 35.9426 32.1525C35.69 32.3735 35.3979 32.4919 35.0584 32.4919H35.0663Z" fill="#00157C"/>
</svg>
